<svg xmlns="http://www.w3.org/2000/svg" xmlns:vectornator="http://vectornator.io" xml:space="preserve" stroke-miterlimit="10" style="fill-rule:nonzero;clip-rule:evenodd;stroke-linecap:round;stroke-linejoin:round" viewBox="0 0 1024 1024"><defs><radialGradient id="a" cx="512.754" cy="469.082" r="275.602" gradientUnits="userSpaceOnUse"><stop offset=".513" stop-color="#dcdcff"/><stop offset=".999" stop-color="#c8c8e6"/></radialGradient><radialGradient id="b" cx="512.594" cy="334.832" r="23.255" gradientUnits="userSpaceOnUse"><stop offset=".513" stop-color="#dcdcff"/><stop offset=".999" stop-color="#c8c8e6"/></radialGradient><radialGradient id="c" cx="512.581" cy="605.337" r="23.294" gradientUnits="userSpaceOnUse"><stop offset=".513" stop-color="#dcdcff"/><stop offset=".999" stop-color="#c8c8e6"/></radialGradient></defs><g vectornator:layerName="Untitled"><path fill="url(#a)" d="M487.125 200.469c-25.165 2.323-49.655 7.768-73.219 16.875-42.288 16.343-78.027 42.107-108.312 75.718-26.687 29.619-46.931 62.906-58.563 101.219-5.043 16.612-8.767 33.477-9.781 50.844-.347 5.943.348 6.532 6.438 6.563 8.832.044 17.667.007 26.5 0 6.794-.006 6.622-.138 7.531-6.844 1.964-14.496 3.885-29.033 8.969-42.875.991-2.7 1.405-5.832 4.218-7.813 7.465 7.307 14.786 14.513 22.156 21.656 2.303 2.232 3.223 4.77 3.126 8.032-.219 7.326.062 14.641-.126 21.968-.109 4.291 1.63 6.018 5.907 5.938 8.829-.166 17.662.328 26.469-.156 13.131-.723 22.629 10.327 22.843 22.031.224 12.248-8.913 20.535-22.625 20.625-8.999.059-18.002.118-27 0-3.84-.05-5.472 1.574-5.437 5.344.063 6.832-.166 13.675.062 20.5.11 3.275-.893 5.803-3.093 8.062-5.581 5.729-11.067 11.53-16.688 17.219-6.581 6.661-6.951 6.564-9.75-2.25a235.215 235.215 0 0 1-9.219-41.875c-.824-6.548-1.237-6.89-7.75-6.906-9.332-.024-18.67.06-28-.094-3.474-.057-4.716 1.254-4.625 4.719.204 7.68 1.105 15.296 2.563 22.781 7.669 39.368 23.539 75.002 47.875 107.062 33.641 44.321 76.775 75.342 129 93.938 22.223 7.913 45.195 12.415 68.687 14.531 7.371.664 8.332.387 8.281-6.906-.107-15.493-.454-31.007-.531-46.5-.019-3.98-1.484-5.416-5.531-5.781-28.354-2.555-55.306-9.951-80.281-23.906-4.43-2.476-8.949-4.929-12.75-9.157 9.578-9.946 18.827-19.529 28.031-29.125 1.947-2.03 3.439-.877 5.156.406 4.803 3.59 9.579 7.259 14.594 10.532 4.88 3.185 6.356 2.242 6.375-3.563.045-13.832.124-27.638-.031-41.469-.04-3.607 1.051-6.36 3.531-8.937 19.062-19.811 38.042-39.712 57.063-59.563 1.118-1.167 2.023-2.682 4.124-2.906.397.308.968.668 1.407 1.125 19.503 20.311 38.957 40.663 58.562 60.875 2.662 2.744 3.776 5.524 3.75 9.282-.091 13.497-.014 27.003.157 40.5.073 5.8 2.309 7.042 7.093 3.937 4.327-2.808 8.623-5.747 12.531-9.094 3.01-2.577 4.973-2.201 7.5.531 7.24 7.83 14.673 15.468 22.032 23.188 4.581 4.806 4.558 5-1.188 8.656-26.686 16.982-56.02 25.962-87.344 28.782-4.379.394-5.692 2.006-5.656 6.156.142 15.996.196 32.005-.031 48-.065 4.569 1.591 5.718 5.875 5.344 26.689-2.331 52.625-7.9 77.562-17.813 22.36-8.888 43.947-19.265 63.313-33.75 24.196-18.097 44.62-39.873 62.75-63.937 15.107-20.052 25.338-42.596 33.531-66.126 6.249-17.947 10.81-36.31 12.594-55.312.473-5.035-1.688-6.542-6.25-6.469-8.331.134-16.667.073-25 .094-6.931.018-7.458.605-8.188 7.594-1.597 15.304-5.064 30.187-10.593 44.562-.512 1.331-.659 2.997-3 3.469-7.741-5.368-13.827-12.9-20.688-19.625-4.029-3.95-6.268-8.13-5.469-14.063.618-4.581.131-9.333.094-14-.059-7.235-.862-7.941-8.031-8.093-9.649-.205-19.303.522-28.937-.813-14.557-2.016-22.243-18.456-14.313-30.812 4.621-7.2 11.274-10.64 19.687-10.782 8.331-.139 16.671-.237 25-.093 4.642.08 6.732-1.685 6.594-6.469-.211-7.327-.017-14.669-.125-22-.036-2.475.537-4.429 2.375-6.25 6.629-6.565 13.079-13.288 19.656-19.906 1.107-1.114 1.975-2.847 4.344-2.406 2.252 2.951 3.217 6.687 4.406 10.281 4.512 13.631 7.123 27.675 8.719 41.906.413 3.676 2.26 4.832 5.563 4.813 6.666-.039 13.336.082 20-.032 16.844-.285 15.634 2.965 13.656-15.562-3.968-37.178-16.982-71.721-36.844-103.125-30.825-48.738-72.401-85.944-125.312-109.657-27.83-12.472-56.954-20.457-87.563-22.406-3.357-.214-5.312.092-5.281 4.25.123 16.664.002 33.336-.094 50-.018 3.125 1.205 4.271 4.406 4.563 26.171 2.384 50.95 9.62 74.876 22.25 5.636 3.541 11.276 7.073 16.906 10.625 2.558 1.614 3.451 3.351.906 5.937a2518.124 2518.124 0 0 0-25.031 25.813c-1.865 1.949-3.443 2.042-5.594.437-4.138-3.087-8.436-5.973-12.687-8.906-2.149-1.482-4.296-3.865-7.126-2.219-2.6 1.513-1.577 4.522-1.593 6.906-.097 14.332-.072 28.668-.094 43-.004 2.51-.117 4.872-2.125 6.907a18994.102 18994.102 0 0 0-58.875 59.875c-2.62 2.677-4.517 2.295-7-.313-18.502-19.428-37.544-38.337-56.906-56.906-2.594-2.488-3.663-5.176-3.625-8.813.159-15.496.085-30.97 0-46.468-.031-5.583-2.064-6.727-6.719-3.594-4.69 3.157-9.277 6.513-13.594 10.156-2.603 2.197-4.251 2.362-6.593-.281-7.523-8.483-15.706-16.333-23.907-24.156-4.399-4.197-4.333-5.187.625-8.625 26.905-18.657 56.888-28.686 89.344-31.625 3.435-.311 5.165-1.361 5.156-5.063a4821.39 4821.39 0 0 1 .156-49c.034-4.245-2.002-5.55-5.937-5.187m200.187 116.437c1.078.012 2.103 1.206 4.188 3.656 5.828 6.849 11.458 13.91 17.531 20.532 2.792 3.044 2.71 4.884-.156 7.781-20.265 20.484-40.363 41.139-60.531 61.719-13.406 13.68-26.904 27.263-40.219 41.031-13.6 14.063-13.655 26.607-.125 40.563 34.662 35.752 69.418 71.416 104.125 107.124.45.463.809 1.02 1.5 1.876-8.187 8.556-15.914 17.385-24.563 25.374-1.734 1.603-2.835.551-4.093-.874C667.771 606.195 649.087 588.136 631 569c-27.13-27.779-54.014-55.296-80.906-82.812-3.49-3.571-7.019-7.142-10.625-10.594-2.477-2.371-2.219-4.132.187-6.594 15.484-15.842 30.822-31.824 46.188-47.781 32.348-33.593 64.705-67.199 97.031-100.813 2.251-2.34 3.361-3.511 4.437-3.5m-349.406.188c.943-.277 2.009.056 3.406 1.531a9641.642 9641.642 0 0 0 65.282 68.25c23.259 24.083 46.682 48.003 70.281 72.25 3.208 3.413 6.06 6.698 9.156 9.719 2.294 2.237 2.126 3.793-.031 6.187-11.387 12.636-23.881 24.192-35.688 36.407-35.542 36.769-71.053 73.54-106.593 110.312-1.158 1.198-2.377 2.334-3.5 3.562-1.884 2.06-3.499 1.948-5.375-.156-6.097-6.836-12.268-13.63-18.532-20.312-2.852-3.043-2.709-5.296.282-8.375 24.022-24.733 47.848-49.648 71.812-74.438 9.493-9.82 19.271-19.383 28.782-29.187 13.044-13.447 13.259-27.931.25-41.438-11.902-12.355-24.283-24.265-36.344-36.468-21.546-21.801-42.979-43.706-64.563-65.469-2.742-2.765-3.279-4.947-.562-8 6.532-7.341 12.849-14.876 19.343-22.25.836-.949 1.651-1.849 2.594-2.125"/><path fill="url(#b)" d="M518.5 299c-7.323.013-14.646-.003-21.969.031-5.941.028-6.505.583-6.562 6.625-.118 12.476.337 24.975-.563 37.438-.255 3.53.228 6.958 1.125 10.344 2.706 10.212 12.966 17.844 23 17.187 10.724-.702 21.453-9.279 21.907-19.219.726-15.942.266-31.932.281-47.906.003-3.093-1.696-4.497-4.75-4.469-3.827.036-7.644-.013-12.469-.031"/><path fill="url(#c)" d="M513.656 572.062a28.74 28.74 0 0 0-4.5.219c-11.027 1.404-19.565 11.121-19.75 22.969-.189 12.16-.116 24.338-.031 36.5.045 6.451.559 6.812 8.281 6.875 10.331-.01 20.671.031 31-.063 6.72-.061 7.225-.583 7.219-7.062-.011-12.33-.064-24.671-.187-37-.02-1.972-.234-3.99-.782-5.875-2.946-10.143-11-16.251-21.25-16.563"/></g></svg>